<svg width="458" height="516" viewBox="0 0 458 516" fill="none" xmlns="http://www.w3.org/2000/svg">
<path d="M195.333 416.942C194.842 539.73 7.05399 539.067 7.33332 415.998C8.48732 294.747 195.751 295.165 195.333 416.942Z" fill="#FF9F03"/>
<path d="M437.333 91.9406C436.843 215.175 248.387 214.511 248.667 90.9939C249.827 -30.6984 437.756 -30.2778 437.333 91.9406Z" fill="#F5881F"/>
<path d="M265.991 515.333C363.794 449.605 326.764 316.537 250 276C515.253 276 531.807 511.34 265.991 515.333Z" fill="#FCB813"/>
<path d="M202 1.92667C102.631 49.32 97.4787 210.345 196.848 270C-67.9585 270 -64.3834 7.636 200.247 0C200.844 0.630667 201.403 1.296 202 1.92667Z" fill="#F5881F"/>
</svg>
