<svg width="15" height="17" viewBox="0 0 15 17" fill="none" xmlns="http://www.w3.org/2000/svg">
<g clip-path="url(#clip0_2055_1063)">
<path d="M6.39744 13.6546C6.38136 17.676 0.231096 17.6543 0.240245 13.6236C0.278039 9.65255 6.41113 9.66624 6.39744 13.6546Z" fill="#FF9F03"/>
<path d="M14.3236 3.01115C14.3075 7.04722 8.13537 7.02547 8.14454 2.98015C8.18253 -1.00541 14.3374 -0.991632 14.3236 3.01115Z" fill="#F5881F"/>
<path d="M8.71122 16.8775C11.9144 14.7248 10.7016 10.3667 8.1875 9.03906C16.8748 9.03906 17.417 16.7467 8.71122 16.8775Z" fill="#FCB813"/>
<path d="M6.61572 0.0631005C3.36128 1.61528 3.19253 6.88903 6.44698 8.84279C-2.22572 8.84279 -2.10863 0.250087 6.55831 0C6.57786 0.020655 6.59617 0.0424454 6.61572 0.0631005Z" fill="#F5881F"/>
</g>
<defs>
<clipPath id="clip0_2055_1063">
<rect width="15" height="16.8996" fill="white"/>
</clipPath>
</defs>
</svg>
