<svg width="80" height="19" viewBox="0 0 80 19" fill="none" xmlns="http://www.w3.org/2000/svg">
<path d="M10.2295 12.1619C10.2295 8.86032 12.6502 6.42188 15.9531 6.42188C19.2562 6.42188 21.6769 8.86032 21.6769 12.1619C21.6769 15.4633 19.2306 17.8761 15.9531 17.8761C12.6758 17.8761 10.2295 15.4633 10.2295 12.1619ZM12.1558 12.1619C12.1558 14.8365 14.0268 16.1975 15.9531 16.1975C17.8796 16.1975 19.7505 14.8108 19.7505 12.1619C19.7505 9.51299 17.9307 8.10052 15.9531 8.10052C13.9756 8.10052 12.1558 9.5172 12.1558 12.1619Z" fill="url(#paint0_radial_2055_1069)"/>
<path d="M26.4067 13.0285C26.4067 13.7883 26.4067 14.6814 26.9267 15.3597C27.2122 15.7246 27.7834 16.197 28.8276 16.197C29.8717 16.197 30.4385 15.7246 30.7283 15.3597C31.2482 14.6771 31.2482 13.7883 31.2482 13.0285V6.6875H33.1236V13.2388C33.1236 14.574 32.9914 15.57 32.1347 16.5146C31.1716 17.5364 29.8973 17.8756 28.8318 17.8756C27.7663 17.8756 26.492 17.5364 25.5288 16.5146C24.6679 15.57 24.54 14.574 24.54 13.2388V8.39612H26.411V13.0285H26.4067Z" fill="url(#paint1_radial_2055_1069)"/>
<path d="M38.5321 0.416016V17.5588H36.6611V0.416016H38.5321Z" fill="url(#paint2_radial_2055_1069)"/>
<path d="M52.1653 3.96094C52.8942 3.96094 53.4905 4.56197 53.4905 5.296C53.4905 6.03018 52.8942 6.63122 52.1653 6.63122C51.4365 6.63122 50.8398 6.02598 50.8398 5.296C50.8398 4.5662 51.4365 3.96094 52.1653 3.96094ZM53.103 9.41325V17.5617H51.232V9.41325H53.103Z" fill="url(#paint3_radial_2055_1069)"/>
<path d="M64.913 0.414449H66.7883V17.5572H64.913V16.0374C64.2907 16.8488 63.1187 17.8706 61.218 17.8706C58.486 17.8706 55.9629 15.9301 55.9629 12.1048C55.9629 8.27964 58.4606 6.41631 61.218 6.41631C63.2974 6.41631 64.4185 7.57122 64.913 8.22379V0.410156V0.414449ZM57.8891 12.1092C57.8891 14.4404 59.1894 16.1963 61.4268 16.1963C63.6642 16.1963 65.0154 14.2815 65.0154 12.1349C65.0154 9.33138 63.0886 8.09932 61.4268 8.09932C59.5811 8.09932 57.8891 9.46015 57.8891 12.1092Z" fill="url(#paint4_radial_2055_1069)"/>
<path d="M79.899 14.785C79.5879 15.3904 79.1193 16.0429 78.5738 16.5409C77.5853 17.4296 76.3619 17.8761 74.9853 17.8761C72.3811 17.8761 69.6533 16.2232 69.6533 12.1876C69.6533 8.93762 71.631 6.42188 74.8829 6.42188C76.9884 6.42188 78.3183 7.46936 78.966 8.41382C79.6435 9.38421 80.0315 11.0627 79.9801 12.5009H71.5759C71.6014 14.7549 73.1354 16.1975 75.0107 16.1975C75.8975 16.1975 76.5962 15.9355 77.2227 15.4118C77.7172 14.9911 78.1094 14.4416 78.3396 13.9178L79.899 14.7806V14.785ZM78.0538 10.9339C77.7427 9.22967 76.4684 8.10473 74.8788 8.10473C73.2892 8.10473 71.9889 9.31117 71.7037 10.9339H78.0538Z" fill="url(#paint5_radial_2055_1069)"/>
<path d="M46.5282 9.19962C46.2682 8.57702 45.727 8.10902 45.0322 8.10902C44.3376 8.10902 43.7409 8.49978 43.7409 9.33261C43.7409 10.114 44.2565 10.3458 45.4712 10.8653C47.0183 11.5136 47.7428 12.0073 48.1563 12.5268C48.6207 13.0978 48.7231 13.6688 48.7231 14.2697C48.7231 16.5324 47.0992 17.8032 45.0322 17.8032C44.5933 17.8032 42.1981 17.9663 41.252 14.815L42.7777 14.4029C42.9822 14.974 43.7153 16.1373 45.0578 16.1373C46.2725 16.1373 46.8138 15.2272 46.8138 14.4201C46.8138 13.4069 46.0892 13.0677 45.0834 12.6256C43.7921 12.0545 42.9694 11.6381 42.4793 11.0414C42.066 10.5219 41.9892 10.0023 41.9892 9.45718C41.9892 7.55951 43.3061 6.44336 45.1133 6.44336C45.6801 6.44336 47.2016 6.54637 48.0539 8.3924L46.5324 9.19962H46.5282Z" fill="url(#paint6_radial_2055_1069)"/>
<path d="M6.15808 9.27406C5.90234 8.59573 5.50172 7.92165 4.22742 7.97329C3.5583 8.00331 2.78263 8.56996 2.78263 9.40284C2.78263 10.1843 3.29832 10.4161 4.51296 10.9355C6.06001 11.5838 6.78458 12.0776 7.19798 12.597C7.66245 13.168 7.76479 13.7391 7.76479 14.3401C7.76479 16.6026 6.14099 17.8733 4.07399 17.8733C3.63501 17.8733 1.23555 17.8218 0.332031 15.1171L1.93025 14.4431C2.13481 15.0141 2.75705 16.2119 4.09955 16.2119C5.31419 16.2119 5.85543 15.3018 5.85543 14.4946C5.85543 13.4813 5.13094 13.1423 4.12512 12.7C2.83377 12.1291 2.01122 11.7126 1.5211 11.1158C1.1077 10.5964 1.03099 10.0769 1.03099 9.53162C1.03099 7.63406 2.76132 6.38477 4.56837 6.38477C5.68499 6.38477 7.36421 7.02871 7.66681 8.85334L6.16234 9.2698L6.15808 9.27406Z" fill="url(#paint7_radial_2055_1069)"/>
<defs>
<radialGradient id="paint0_radial_2055_1069" cx="0" cy="0" r="1" gradientUnits="userSpaceOnUse" gradientTransform="translate(3.99428 -42.658) scale(111.146 111.962)">
<stop stop-color="#F5881F"/>
<stop offset="0.5" stop-color="#F5881F"/>
<stop offset="0.99" stop-color="#FCB813"/>
</radialGradient>
<radialGradient id="paint1_radial_2055_1069" cx="0" cy="0" r="1" gradientUnits="userSpaceOnUse" gradientTransform="translate(3.99338 -42.6586) scale(111.146 111.962)">
<stop stop-color="#F5881F"/>
<stop offset="0.5" stop-color="#F5881F"/>
<stop offset="0.99" stop-color="#FCB813"/>
</radialGradient>
<radialGradient id="paint2_radial_2055_1069" cx="0" cy="0" r="1" gradientUnits="userSpaceOnUse" gradientTransform="translate(3.99353 -42.6576) scale(111.147 111.962)">
<stop stop-color="#F5881F"/>
<stop offset="0.5" stop-color="#F5881F"/>
<stop offset="0.99" stop-color="#FCB813"/>
</radialGradient>
<radialGradient id="paint3_radial_2055_1069" cx="0" cy="0" r="1" gradientUnits="userSpaceOnUse" gradientTransform="translate(3.99275 -42.659) scale(111.146 111.963)">
<stop stop-color="#FFCE00"/>
<stop offset="0.5" stop-color="#F5881F"/>
<stop offset="0.99" stop-color="#FCB813"/>
</radialGradient>
<radialGradient id="paint4_radial_2055_1069" cx="0" cy="0" r="1" gradientUnits="userSpaceOnUse" gradientTransform="translate(3.99322 -42.6592) scale(111.146 111.962)">
<stop stop-color="#EE4023"/>
<stop offset="0.5" stop-color="#F5881F"/>
<stop offset="0.99" stop-color="#FCB813"/>
</radialGradient>
<radialGradient id="paint5_radial_2055_1069" cx="0" cy="0" r="1" gradientUnits="userSpaceOnUse" gradientTransform="translate(3.99451 -42.658) scale(111.147 111.962)">
<stop stop-color="#EE4023"/>
<stop offset="0.5" stop-color="#F5881F"/>
<stop offset="0.9899" stop-color="#FCB613"/>
<stop offset="0.99" stop-color="#FCB813"/>
</radialGradient>
<radialGradient id="paint6_radial_2055_1069" cx="0" cy="0" r="1" gradientUnits="userSpaceOnUse" gradientTransform="translate(3.9943 -42.658) scale(111.146 111.963)">
<stop stop-color="#EE4023"/>
<stop offset="0.5" stop-color="#F5881F"/>
<stop offset="0.99" stop-color="#FCB813"/>
</radialGradient>
<radialGradient id="paint7_radial_2055_1069" cx="0" cy="0" r="1" gradientUnits="userSpaceOnUse" gradientTransform="translate(3.99301 -42.6564) scale(111.146 111.963)">
<stop stop-color="#F5881F"/>
<stop offset="0.5" stop-color="#F5881F"/>
<stop offset="0.99" stop-color="#FCB813"/>
</radialGradient>
</defs>
</svg>
