<svg width="154" height="35" viewBox="0 0 154 35" fill="none" xmlns="http://www.w3.org/2000/svg">
<path d="M19.6912 23.4128C19.6912 17.0573 24.351 12.3633 30.7092 12.3633C37.0676 12.3633 41.7275 17.0573 41.7275 23.4128C41.7275 29.768 37.0183 34.4127 30.7092 34.4127C24.4004 34.4127 19.6912 29.768 19.6912 23.4128ZM23.3994 23.4128C23.3994 28.5615 27.001 31.1813 30.7092 31.1813C34.4177 31.1813 38.0192 28.5119 38.0192 23.4128C38.0192 18.3137 34.5161 15.5947 30.7092 15.5947C26.9025 15.5947 23.3994 18.3218 23.3994 23.4128Z" fill="url(#paint0_radial_1_11)"/>
<path d="M50.8339 25.0815C50.8339 26.5441 50.8339 28.2633 51.8349 29.569C52.3844 30.2714 53.4839 31.1807 55.494 31.1807C57.5039 31.1807 58.595 30.2714 59.1529 29.569C60.1538 28.2549 60.1538 26.5441 60.1538 25.0815V12.875H63.7638V25.4863C63.7638 28.0566 63.5093 29.9739 61.8603 31.7922C60.0062 33.7591 57.5532 34.4121 55.5021 34.4121C53.451 34.4121 50.9981 33.7591 49.1439 31.7922C47.4866 29.9739 47.2405 28.0566 47.2405 25.4863V16.1641H50.8421V25.0815H50.8339Z" fill="url(#paint1_radial_1_11)"/>
<path d="M74.1748 0.800781V33.8006H70.5732V0.800781H74.1748Z" fill="url(#paint2_radial_1_11)"/>
<path d="M100.419 7.625C101.822 7.625 102.97 8.78198 102.97 10.195C102.97 11.6083 101.822 12.7653 100.419 12.7653C99.016 12.7653 97.8674 11.6002 97.8674 10.195C97.8674 8.79013 99.016 7.625 100.419 7.625ZM102.224 18.1207V33.8065H98.6223V18.1207H102.224Z" fill="url(#paint3_radial_1_11)"/>
<path d="M124.958 0.799516H128.568V33.7994H124.958V30.8737C123.76 32.4357 121.504 34.4026 117.845 34.4026C112.586 34.4026 107.729 30.6672 107.729 23.3035C107.729 15.94 112.537 12.3531 117.845 12.3531C121.848 12.3531 124.006 14.5763 124.958 15.8325V0.791252V0.799516ZM111.437 23.3119C111.437 27.7994 113.94 31.1796 118.247 31.1796C122.554 31.1796 125.155 27.4935 125.155 23.3614C125.155 17.9646 121.446 15.5929 118.247 15.5929C114.694 15.5929 111.437 18.2125 111.437 23.3119Z" fill="url(#paint4_radial_1_11)"/>
<path d="M153.806 28.4623C153.207 29.6277 152.305 30.8838 151.255 31.8424C149.352 33.5532 146.997 34.4127 144.347 34.4127C139.334 34.4127 134.083 31.2309 134.083 23.4624C134.083 17.2061 137.89 12.3633 144.15 12.3633C148.203 12.3633 150.763 14.3797 152.01 16.1978C153.314 18.0658 154.061 21.2969 153.962 24.0655H137.784C137.833 28.4043 140.786 31.1813 144.396 31.1813C146.103 31.1813 147.448 30.6771 148.654 29.6689C149.606 28.859 150.361 27.8012 150.804 26.7929L153.806 28.4539V28.4623ZM150.254 21.049C149.655 17.7683 147.202 15.6028 144.142 15.6028C141.082 15.6028 138.579 17.9252 138.03 21.049H150.254Z" fill="url(#paint5_radial_1_11)"/>
<path d="M89.5662 17.7102C89.0656 16.5117 88.0238 15.6108 86.6864 15.6108C85.3492 15.6108 84.2006 16.363 84.2006 17.9662C84.2006 19.4703 85.1932 19.9166 87.5314 20.9167C90.5096 22.1647 91.9043 23.1149 92.7002 24.115C93.5943 25.2142 93.7913 26.3133 93.7913 27.4702C93.7913 31.8258 90.6654 34.272 86.6864 34.272C85.8414 34.272 81.2307 34.586 79.4094 28.5199L82.3465 27.7265C82.7402 28.8258 84.1514 31.0653 86.7357 31.0653C89.0739 31.0653 90.1159 29.3133 90.1159 27.7596C90.1159 25.8093 88.7212 25.1563 86.7849 24.3052C84.2991 23.2059 82.7155 22.4042 81.772 21.2556C80.9764 20.2555 80.8286 19.2554 80.8286 18.206C80.8286 14.553 83.3637 12.4044 86.8424 12.4044C87.9335 12.4044 90.8624 12.6027 92.5032 16.1563L89.5743 17.7102H89.5662Z" fill="url(#paint6_radial_1_11)"/>
<path d="M11.8548 17.851C11.3625 16.5452 10.5913 15.2476 8.13827 15.347C6.85021 15.4048 5.35705 16.4956 5.35705 18.0989C5.35705 19.6032 6.34975 20.0494 8.68794 21.0493C11.666 22.2973 13.0608 23.2478 13.8566 24.2476C14.7507 25.3469 14.9477 26.4461 14.9477 27.6031C14.9477 31.9584 11.8219 34.4046 7.84291 34.4046C6.99788 34.4046 2.37892 34.3054 0.639648 29.0988L3.71622 27.8014C4.11 28.9005 5.30781 31.2063 7.89213 31.2063C10.2303 31.2063 11.2722 29.4543 11.2722 27.9006C11.2722 25.95 9.87754 25.2973 7.94135 24.446C5.4555 23.347 3.87209 22.5452 2.92861 21.3964C2.13281 20.3965 1.98514 19.3965 1.98514 18.3468C1.98514 14.694 5.31603 12.2891 8.7946 12.2891C10.9441 12.2891 14.1766 13.5287 14.7591 17.0411L11.863 17.8428L11.8548 17.851Z" fill="url(#paint7_radial_1_11)"/>
<defs>
<radialGradient id="paint0_radial_1_11" cx="0" cy="0" r="1" gradientUnits="userSpaceOnUse" gradientTransform="translate(7.68841 -82.1154) scale(213.956 215.527)">
<stop stop-color="#F5881F"/>
<stop offset="0.5" stop-color="#F5881F"/>
<stop offset="0.99" stop-color="#FCB813"/>
</radialGradient>
<radialGradient id="paint1_radial_1_11" cx="0" cy="0" r="1" gradientUnits="userSpaceOnUse" gradientTransform="translate(7.68818 -82.1163) scale(213.957 215.527)">
<stop stop-color="#F5881F"/>
<stop offset="0.5" stop-color="#F5881F"/>
<stop offset="0.99" stop-color="#FCB813"/>
</radialGradient>
<radialGradient id="paint2_radial_1_11" cx="0" cy="0" r="1" gradientUnits="userSpaceOnUse" gradientTransform="translate(7.68807 -82.116) scale(213.957 215.527)">
<stop stop-color="#F5881F"/>
<stop offset="0.5" stop-color="#F5881F"/>
<stop offset="0.99" stop-color="#FCB813"/>
</radialGradient>
<radialGradient id="paint3_radial_1_11" cx="0" cy="0" r="1" gradientUnits="userSpaceOnUse" gradientTransform="translate(7.68674 -82.1183) scale(213.957 215.528)">
<stop stop-color="#FFCE00"/>
<stop offset="0.5" stop-color="#F5881F"/>
<stop offset="0.99" stop-color="#FCB813"/>
</radialGradient>
<radialGradient id="paint4_radial_1_11" cx="0" cy="0" r="1" gradientUnits="userSpaceOnUse" gradientTransform="translate(7.68738 -82.1172) scale(213.957 215.527)">
<stop stop-color="#EE4023"/>
<stop offset="0.5" stop-color="#F5881F"/>
<stop offset="0.99" stop-color="#FCB813"/>
</radialGradient>
<radialGradient id="paint5_radial_1_11" cx="0" cy="0" r="1" gradientUnits="userSpaceOnUse" gradientTransform="translate(7.68988 -82.1154) scale(213.957 215.527)">
<stop stop-color="#EE4023"/>
<stop offset="0.5" stop-color="#F5881F"/>
<stop offset="0.9899" stop-color="#FCB613"/>
<stop offset="0.99" stop-color="#FCB813"/>
</radialGradient>
<radialGradient id="paint6_radial_1_11" cx="0" cy="0" r="1" gradientUnits="userSpaceOnUse" gradientTransform="translate(7.68839 -82.1158) scale(213.957 215.528)">
<stop stop-color="#EE4023"/>
<stop offset="0.5" stop-color="#F5881F"/>
<stop offset="0.99" stop-color="#FCB813"/>
</radialGradient>
<radialGradient id="paint7_radial_1_11" cx="0" cy="0" r="1" gradientUnits="userSpaceOnUse" gradientTransform="translate(7.68703 -82.1152) scale(213.957 215.528)">
<stop stop-color="#F5881F"/>
<stop offset="0.5" stop-color="#F5881F"/>
<stop offset="0.99" stop-color="#FCB813"/>
</radialGradient>
</defs>
</svg>
